<?xml version="1.0" encoding="UTF-8" standalone="no"?>
<!-- Created with Inkscape (http://www.inkscape.org/) -->
<svg
   xmlns:ns="http://creativecommons.org/ns#"
   xmlns:dc="http://purl.org/dc/elements/1.1/"
   xmlns:cc="http://web.resource.org/cc/"
   xmlns:rdf="http://www.w3.org/1999/02/22-rdf-syntax-ns#"
   xmlns:svg="http://www.w3.org/2000/svg"
   xmlns="http://www.w3.org/2000/svg"
   xmlns:xlink="http://www.w3.org/1999/xlink"
   xmlns:sodipodi="http://sodipodi.sourceforge.net/DTD/sodipodi-0.dtd"
   xmlns:inkscape="http://www.inkscape.org/namespaces/inkscape"
   width="64px"
   height="64px"
   id="svg3471"
   sodipodi:version="0.32"
   inkscape:version="0.45.1"
   sodipodi:docname="tryton_currency.svg"
   inkscape:output_extension="org.inkscape.output.svg.inkscape"
   sodipodi:docbase="/home/kp/Desktop">
  <defs
     id="defs3473">
    <linearGradient
       id="linearGradient3212">
      <stop
         style="stop-color:#fffff2;stop-opacity:1;"
         offset="0"
         id="stop3214" />
      <stop
         style="stop-color:#fffff2;stop-opacity:0;"
         offset="1"
         id="stop3216" />
    </linearGradient>
    <linearGradient
       inkscape:collect="always"
       xlink:href="#linearGradient3212"
       id="linearGradient3230"
       gradientUnits="userSpaceOnUse"
       x1="164.10248"
       y1="472.9617"
       x2="199.2081"
       y2="538.2522" />
    <linearGradient
       inkscape:collect="always"
       id="linearGradient3178">
      <stop
         style="stop-color:#ffffff;stop-opacity:1;"
         offset="0"
         id="stop3180" />
      <stop
         style="stop-color:#ffffff;stop-opacity:0;"
         offset="1"
         id="stop3182" />
    </linearGradient>
    <linearGradient
       inkscape:collect="always"
       xlink:href="#linearGradient3178"
       id="linearGradient3228"
       gradientUnits="userSpaceOnUse"
       x1="271.86691"
       y1="489.62354"
       x2="337.84335"
       y2="553.1734" />
    <inkscape:perspective
       sodipodi:type="inkscape:persp3d"
       inkscape:vp_x="0 : 32 : 1"
       inkscape:vp_y="0 : 1000 : 0"
       inkscape:vp_z="64 : 32 : 1"
       inkscape:persp3d-origin="32 : 21.333333 : 1"
       id="perspective3479" />
    <linearGradient
       inkscape:collect="always"
       xlink:href="#linearGradient3212"
       id="linearGradient2477"
       gradientUnits="userSpaceOnUse"
       x1="164.10248"
       y1="472.9617"
       x2="199.2081"
       y2="538.2522" />
  </defs>
  <sodipodi:namedview
     id="base"
     pagecolor="#ffffff"
     bordercolor="#666666"
     borderopacity="1.0"
     inkscape:pageopacity="0.0"
     inkscape:pageshadow="2"
     inkscape:zoom="9.3995622"
     inkscape:cx="33.147054"
     inkscape:cy="31.673852"
     inkscape:current-layer="layer1"
     showgrid="true"
     inkscape:document-units="px"
     inkscape:grid-bbox="true"
     inkscape:window-width="1590"
     inkscape:window-height="1027"
     inkscape:window-x="0"
     inkscape:window-y="25" />
  <metadata
     id="metadata3476">
    <rdf:RDF>
      <ns:Work
         rdf:about="">
        <dc:format>image/svg+xml</dc:format>
        <dc:type
           rdf:resource="http://purl.org/dc/dcmitype/StillImage" />
      </ns:Work>
      <cc:Work
         rdf:about="">
        <dc:format>image/svg+xml</dc:format>
        <dc:type
           rdf:resource="http://purl.org/dc/dcmitype/StillImage" />
      </cc:Work>
    </rdf:RDF>
  </metadata>
  <g
     id="layer1"
     inkscape:label="Layer 1"
     inkscape:groupmode="layer">
    <g
       id="g3224"
       transform="matrix(0.8931554,0,0,0.7971373,-218.20015,-362.23147)"
       style="opacity:1">
      <path
         d="M 296.75,483.0625 C 285.50025,483.06249 275.91981,490.42158 272.59375,501.28125 L 267.53125,501.28125 C 267.17234,501.28952 266.85283,501.51072 266.71875,501.84375 L 265,505.9375 C 264.88281,506.21268 264.91029,506.52815 265.0733,506.77892 C 265.2363,507.0297 265.51344,507.18288 265.8125,507.1875 L 271.625,507.1875 C 271.60957,507.51717 271.53125,508.00545 271.53125,508.25 C 271.53125,508.45898 271.60891,508.98953 271.625,509.34375 L 267.59375,509.34375 C 267.23484,509.35202 266.91533,509.57322 266.78125,509.90625 L 265.0625,514 C 264.94531,514.27518 264.97279,514.59065 265.1358,514.84142 C 265.2988,515.0922 265.57594,515.24538 265.875,515.25 L 272.59375,515.25 C 275.9198,526.10968 285.50025,533.46875 296.75,533.46875 C 302.55554,533.46876 307.78991,531.60217 312.8125,527.6875 C 313.03289,527.51462 313.16001,527.24883 313.15625,526.96875 L 313.15625,521.1875 C 313.16735,520.80303 312.93243,520.45417 312.572,520.31989 C 312.21157,520.18562 311.80565,520.29573 311.5625,520.59375 C 307.76401,525.08287 302.47798,527.5625 296.6875,527.5625 C 288.80745,527.56252 281.50208,522.43909 278.78125,515.25 L 304.3125,515.25 C 304.67141,515.24173 304.99092,515.02053 305.125,514.6875 L 306.875,510.59375 C 306.99219,510.31857 306.96471,510.0031 306.8017,509.75233 C 306.6387,509.50155 306.36156,509.34837 306.0625,509.34375 L 277.46875,509.34375 C 277.45886,508.9966 277.4375,508.54085 277.4375,508.25 C 277.43751,507.96282 277.45935,507.5257 277.46875,507.1875 L 307.71875,507.1875 C 308.08907,507.19188 308.42411,506.96852 308.5625,506.625 L 310.21875,502.53125 C 310.33814,502.25096 310.30731,501.92927 310.13686,501.67676 C 309.96642,501.42425 309.6796,501.27535 309.375,501.28125 L 303.96875,501.28125 L 278.78125,501.28125 C 281.60782,493.96489 288.72027,488.96875 296.75,488.96875 C 302.54762,488.96874 307.60774,491.35829 311.5625,495.9375 C 311.76763,496.16833 312.07695,496.2776 312.38156,496.22683 C 312.68616,496.17607 312.94332,495.97238 313.0625,495.6875 L 314.78125,491.59375 C 314.9176,491.26234 314.84391,490.8816 314.59375,490.625 C 309.48198,485.58729 303.45038,483.0625 296.75,483.0625 z "
         inkscape:href="#path3174"
         id="path3176"
         style="font-size:72px;font-style:normal;font-variant:normal;font-weight:normal;font-stretch:normal;text-align:start;line-height:125%;writing-mode:lr-tb;text-anchor:start;fill:#edd400;fill-opacity:1;stroke:#c4a000;stroke-width:1px;stroke-linecap:butt;stroke-linejoin:miter;stroke-opacity:1;font-family:Standard Symbols L"
         xlink:href="#path3174"
         inkscape:original="M 296.75 483.96875 C 285.66202 483.96874 276.24275 491.31551 273.21875 502.1875 L 267.53125 502.1875 L 265.8125 506.28125 L 272.5625 506.28125 C 272.4185 507.36125 272.4375 507.746 272.4375 508.25 C 272.43751 508.68201 272.4185 509.17 272.5625 510.25 L 267.59375 510.25 L 265.875 514.34375 L 273.21875 514.34375 C 276.24274 525.21575 285.66201 532.5625 296.75 532.5625 C 302.36601 532.56251 307.35401 530.78474 312.25 526.96875 L 312.25 521.1875 C 308.29001 525.86748 302.7355 528.46875 296.6875 528.46875 C 287.97551 528.46877 279.91675 522.55174 277.46875 514.34375 L 304.3125 514.34375 L 306.0625 510.25 L 276.59375 510.25 C 276.52176 509.16999 276.53125 508.754 276.53125 508.25 C 276.53126 507.74601 276.52175 507.28924 276.59375 506.28125 L 307.71875 506.28125 L 309.375 502.1875 L 303.96875 502.1875 L 277.46875 502.1875 C 280.06075 493.83549 287.89401 488.0625 296.75 488.0625 C 302.79801 488.06249 308.14601 490.59175 312.25 495.34375 L 313.96875 491.25 C 309.00076 486.35399 303.22999 483.96875 296.75 483.96875 z "
         inkscape:radius="0.89809996"
         sodipodi:type="inkscape:offset" />
      <path
         id="path3174"
         d="M 265.80469,506.29405 L 272.57269,506.29405 C 272.42869,507.37404 272.42869,507.73405 272.42869,508.23805 C 272.42869,508.67005 272.42869,509.17405 272.57269,510.25405 L 267.60469,510.25405 L 265.87669,514.35805 L 273.22069,514.35805 C 276.24469,525.23003 285.6767,532.57405 296.76469,532.57405 C 302.38069,532.57405 307.3487,530.77404 312.24469,526.95805 L 312.24469,521.19805 C 308.2847,525.87804 302.74069,528.47005 296.69269,528.47005 C 287.9807,528.47005 279.91669,522.56604 277.46869,514.35805 L 304.32469,514.35805 L 306.05269,510.25405 L 276.60469,510.25405 C 276.53269,509.17405 276.53269,508.74205 276.53269,508.23805 C 276.53269,507.73405 276.53269,507.30204 276.60469,506.29405 L 307.70869,506.29405 L 309.36469,502.19005 L 303.96469,502.19005 L 277.46869,502.19005 C 280.06069,493.83805 287.9087,488.07805 296.76469,488.07805 C 302.81269,488.07805 308.1407,490.59805 312.24469,495.35005 L 313.97269,491.24605 C 309.0047,486.35005 303.24468,483.97405 296.76469,483.97405 C 285.6767,483.97405 276.24469,491.31806 273.22069,502.19005 L 267.53269,502.19005 L 265.80469,506.29405"
         style="font-size:72px;font-style:normal;font-variant:normal;font-weight:normal;font-stretch:normal;text-align:start;line-height:125%;writing-mode:lr-tb;text-anchor:start;fill:none;fill-opacity:1;stroke:url(#linearGradient3228);stroke-width:1px;stroke-linecap:butt;stroke-linejoin:round;stroke-opacity:0.5685131;font-family:Standard Symbols L" />
    </g>
    <g
       id="g3220"
       transform="matrix(0.9052219,0,0,0.7850254,-144.37571,-367.32813)">
      <path
         d="M 176.625,469.6875 C 176.2001,469.77976 175.89932,470.15901 175.90625,470.59375 L 175.90625,478.09375 C 171.43545,478.52806 167.79113,479.7504 165.21875,481.96875 C 162.46799,484.34101 161.06249,487.66198 161.0625,491.6875 C 161.06249,495.40862 162.36694,498.47248 164.90625,500.65625 C 167.33262,502.72229 171.05853,504.12401 175.90625,505 L 175.90625,519.34375 C 173.71599,519.2441 171.59353,518.88804 169.5,518.25 C 167.14123,517.50155 164.79954,516.39997 162.46875,514.9375 C 162.18589,514.75543 161.8258,514.74376 161.53174,514.90713 C 161.23768,515.07049 161.05735,515.3824 161.0625,515.71875 L 161.0625,522.0625 C 161.06207,522.43164 161.2841,522.76467 161.625,522.90625 C 164.16221,523.98338 166.70359,524.7928 169.21875,525.34375 C 171.44159,525.80948 173.65009,526.00207 175.875,526.09375 L 175.90625,535.875 C 175.90965,536.37409 176.31341,536.77785 176.8125,536.78125 L 180.3125,536.78125 C 180.81159,536.77785 181.21535,536.37409 181.21875,535.875 L 181.21875,526.03125 C 185.94444,525.58382 189.72299,524.27205 192.40625,521.96875 C 195.27153,519.50559 196.74996,516.07595 196.75,511.90625 C 196.74996,508.03817 195.36181,504.83826 192.65625,502.5625 C 190.09832,500.41103 186.20028,498.98342 181.21875,498.125 L 181.21875,484.875 C 182.98278,485.00567 184.73684,485.21494 186.40625,485.65625 C 188.40539,486.1788 190.32898,486.91879 192.21875,487.875 C 192.50034,488.01235 192.8327,487.99564 193.09909,487.83074 C 193.36547,487.66583 193.52863,487.37579 193.53125,487.0625 L 193.53125,480.9375 C 193.53515,480.54102 193.28256,480.1874 192.90625,480.0625 C 190.92599,479.41837 188.90105,478.89139 186.8125,478.53125 C 185.00704,478.19925 183.12033,478.04985 181.21875,477.9375 L 181.21875,470.59375 C 181.21535,470.09466 180.81159,469.6909 180.3125,469.6875 L 176.8125,469.6875 C 176.75017,469.68106 176.68733,469.68106 176.625,469.6875 L 176.625,469.6875 z M 175.90625,484.9375 L 175.90625,497.03125 C 173.69602,496.54607 171.96905,495.90983 171,495.09375 C 169.88716,494.13993 169.34373,492.91137 169.34375,491.09375 C 169.34373,489.24558 169.9468,487.89052 171.1875,486.8125 C 172.24444,485.8942 173.87032,485.29376 175.90625,484.9375 z M 181.21875,506.15625 C 183.62314,506.70528 185.4989,507.43711 186.5625,508.34375 C 187.82067,509.39903 188.40621,510.70737 188.40625,512.5625 C 188.40621,514.45338 187.77368,515.83813 186.4375,516.96875 C 185.31078,517.93701 183.49808,518.60046 181.21875,519.03125 L 181.21875,506.15625 z "
         inkscape:href="#text2392"
         id="path3210"
         style="font-size:72px;font-style:normal;font-variant:normal;font-weight:normal;font-stretch:normal;text-align:start;line-height:125%;writing-mode:lr-tb;text-anchor:start;fill:#4e9a06;fill-opacity:1;stroke:#4e9a06;stroke-width:1px;stroke-linecap:butt;stroke-linejoin:miter;stroke-opacity:1;font-family:Standard Symbols L"
         xlink:href="#text2392"
         inkscape:original="M 176.8125 470.59375 L 176.8125 478.84375 C 172.03124 479.17192 168.36717 480.45317 165.8125 482.65625 C 163.2578 484.85942 161.96874 487.86723 161.96875 491.6875 C 161.96874 495.20316 163.15624 497.95315 165.5 499.96875 C 167.86718 501.98439 171.6328 503.43752 176.8125 504.28125 L 176.8125 520.3125 C 174.21092 520.28907 171.67967 519.87501 169.21875 519.125 C 166.78124 518.35157 164.35936 517.21875 161.96875 515.71875 L 161.96875 522.0625 C 164.45311 523.11719 166.94531 523.89843 169.40625 524.4375 C 171.86718 524.95312 174.32029 525.23437 176.78125 525.28125 L 176.8125 535.875 L 180.3125 535.875 L 180.3125 525.21875 C 185.32809 524.86719 189.16403 523.55469 191.8125 521.28125 C 194.48434 518.98438 195.84371 515.8672 195.84375 511.90625 C 195.84371 508.25002 194.57027 505.35939 192.0625 503.25 C 189.55465 501.14065 185.63278 499.66408 180.3125 498.84375 L 180.3125 483.84375 C 182.46872 483.93754 184.58591 484.24222 186.625 484.78125 C 188.68746 485.32035 190.67965 486.07817 192.625 487.0625 L 192.625 480.9375 C 190.67965 480.30473 188.69528 479.7891 186.65625 479.4375 C 184.61716 479.06254 182.49216 478.8438 180.3125 478.75 L 180.3125 470.59375 L 176.8125 470.59375 z M 176.8125 483.8125 L 176.8125 498.21875 C 173.8828 497.72659 171.74217 496.90628 170.40625 495.78125 C 169.09373 494.65628 168.43748 493.10941 168.4375 491.09375 C 168.43748 489.03129 169.16405 487.36723 170.59375 486.125 C 172.02342 484.88286 174.09373 484.11723 176.8125 483.8125 z M 180.3125 504.96875 C 183.42966 505.53127 185.72653 506.43752 187.15625 507.65625 C 188.60934 508.87501 189.31246 510.50002 189.3125 512.5625 C 189.31246 514.67189 188.55466 516.3672 187.03125 517.65625 C 185.53122 518.94532 183.28903 519.78907 180.3125 520.1875 L 180.3125 504.96875 z "
         inkscape:radius="0.91239583"
         sodipodi:type="inkscape:offset" />
      <path
         id="text2392"
         d="M 180.32741,535.87305 L 176.81178,535.87305 L 176.77663,525.29102 C 174.31567,525.24414 171.85474,524.96289 169.39381,524.44727 C 166.93287,523.9082 164.46021,523.11133 161.97585,522.05664 L 161.97585,515.72852 C 164.36646,517.22852 166.78052,518.36524 169.21803,519.13867 C 171.67895,519.88868 174.2102,520.2754 176.81178,520.29883 L 176.81178,504.26758 C 171.63208,503.42385 167.85865,501.99416 165.49147,499.97852 C 163.14771,497.96292 161.97584,495.1973 161.97585,491.68164 C 161.97584,487.86137 163.25318,484.84965 165.80788,482.64648 C 168.36255,480.4434 172.03052,479.17778 176.81178,478.84961 L 176.81178,470.58789 L 180.32741,470.58789 L 180.32741,478.74414 C 182.50707,478.83794 184.61644,479.07231 186.65553,479.44727 C 188.69456,479.79887 190.68675,480.29106 192.6321,480.92383 L 192.6321,487.07617 C 190.68675,486.09184 188.68284,485.33012 186.62038,484.79102 C 184.58129,484.25199 182.48363,483.93559 180.32741,483.8418 L 180.32741,498.85352 C 185.64769,499.67385 189.56175,501.1387 192.0696,503.24805 C 194.57737,505.35744 195.83127,508.24025 195.83131,511.89648 C 195.83127,515.85743 194.49534,518.98633 191.8235,521.2832 C 189.17503,523.55664 185.343,524.86914 180.32741,525.2207 L 180.32741,535.87305 M 176.81178,498.2207 L 176.81178,483.80664 C 174.09301,484.11137 172.0188,484.88481 170.58913,486.12695 C 169.15943,487.36918 168.44458,489.02152 168.4446,491.08398 C 168.44458,493.09964 169.10083,494.66995 170.41335,495.79492 C 171.74927,496.91995 173.88208,497.72854 176.81178,498.2207 M 180.32741,504.9707 L 180.32741,520.19336 C 183.30394,519.79493 185.54222,518.95118 187.04225,517.66211 C 188.56566,516.37306 189.32737,514.67384 189.32741,512.56445 C 189.32737,510.50197 188.60081,508.86134 187.14772,507.64258 C 185.718,506.42385 183.44457,505.53322 180.32741,504.9707"
         style="font-size:72px;font-style:normal;font-variant:normal;font-weight:normal;font-stretch:normal;text-align:start;line-height:125%;writing-mode:lr-tb;text-anchor:start;fill:none;fill-opacity:1;stroke:url(#linearGradient2477);stroke-width:1px;stroke-linecap:butt;stroke-linejoin:miter;stroke-opacity:0.78717203;font-family:Standard Symbols L" />
    </g>
  </g>
</svg>
