<?xml version="1.0" encoding="UTF-8" standalone="no"?>
<!-- Created with Inkscape (http://www.inkscape.org/) -->
<svg
   xmlns:dc="http://purl.org/dc/elements/1.1/"
   xmlns:cc="http://creativecommons.org/ns#"
   xmlns:rdf="http://www.w3.org/1999/02/22-rdf-syntax-ns#"
   xmlns:svg="http://www.w3.org/2000/svg"
   xmlns="http://www.w3.org/2000/svg"
   xmlns:xlink="http://www.w3.org/1999/xlink"
   xmlns:sodipodi="http://sodipodi.sourceforge.net/DTD/sodipodi-0.dtd"
   xmlns:inkscape="http://www.inkscape.org/namespaces/inkscape"
   version="1.0"
   width="64"
   height="64"
   id="svg2160"
   sodipodi:version="0.32"
   inkscape:version="0.46"
   sodipodi:docname="tryton-dollars.svg"
   inkscape:output_extension="org.inkscape.output.svg.inkscape">
  <metadata
     id="metadata2410">
    <rdf:RDF>
      <cc:Work
         rdf:about="">
        <dc:format>image/svg+xml</dc:format>
        <dc:type
           rdf:resource="http://purl.org/dc/dcmitype/StillImage" />
      </cc:Work>
    </rdf:RDF>
  </metadata>
  <sodipodi:namedview
     inkscape:window-height="782"
     inkscape:window-width="1278"
     inkscape:pageshadow="2"
     inkscape:pageopacity="0.0"
     guidetolerance="10.0"
     gridtolerance="10.0"
     objecttolerance="10.0"
     borderopacity="1.0"
     bordercolor="#666666"
     pagecolor="#ffffff"
     id="base"
     showgrid="false"
     inkscape:zoom="7.46875"
     inkscape:cx="8.5690377"
     inkscape:cy="32"
     inkscape:window-x="0"
     inkscape:window-y="16"
     inkscape:current-layer="svg2160" />
  <defs
     id="defs2162">
    <linearGradient
       id="linearGradient4567">
      <stop
         style="stop-color:#73d216;stop-opacity:1;"
         offset="0"
         id="stop4569" />
      <stop
         style="stop-color:#4e9a06;stop-opacity:1;"
         offset="1"
         id="stop4571" />
    </linearGradient>
    <linearGradient
       id="linearGradient4559">
      <stop
         style="stop-color:#73d216;stop-opacity:1;"
         offset="0"
         id="stop4561" />
      <stop
         style="stop-color:#4e9a06;stop-opacity:1;"
         offset="1"
         id="stop4563" />
    </linearGradient>
    <inkscape:perspective
       sodipodi:type="inkscape:persp3d"
       inkscape:vp_x="0 : 32 : 1"
       inkscape:vp_y="0 : 1000 : 0"
       inkscape:vp_z="64 : 32 : 1"
       inkscape:persp3d-origin="32 : 21.333333 : 1"
       id="perspective2412" />
    <radialGradient
       inkscape:collect="always"
       xlink:href="#linearGradient4559"
       id="radialGradient4565"
       cx="32.429001"
       cy="32.567291"
       fx="32.429001"
       fy="32.567291"
       r="20.929001"
       gradientTransform="matrix(1,0,0,1.0280685,0,-0.9141142)"
       gradientUnits="userSpaceOnUse" />
    <linearGradient
       inkscape:collect="always"
       xlink:href="#linearGradient4567"
       id="linearGradient4573"
       x1="29.704749"
       y1="32"
       x2="37.127281"
       y2="32"
       gradientUnits="userSpaceOnUse" />
  </defs>
  <g
     id="g4575">
    <path
       d="M 44.46914,19.506718 C 42.850194,18.432251 40.967774,17.851062 39.135036,17.251375 C 36.638182,16.486837 34.042938,16.200701 31.445632,16.078576 C 29.680925,15.909221 27.96327,16.141605 26.250302,16.511344 C 24.02442,17.077978 21.999818,18.163474 20.005006,19.270767 C 30.013902,13.110157 24.797963,16.22796 22.842699,18.331479 C 22.37812,19.181804 22.434773,20.137096 22.412343,21.077476 C 22.458226,22.937031 23.412459,24.36131 24.546366,25.75777 C 26.217408,27.846309 28.616424,28.955651 30.969589,30.08322 C 35.072382,31.812591 39.340581,33.09933 43.517952,34.632944 C 46.119401,35.488066 48.605431,36.592936 50.913886,38.042343 C 51.98171,38.956064 52.324169,40.179418 52.689266,41.474233 C 52.968247,42.609572 52.847283,43.751091 52.710967,44.889823 C 51.431564,48.759005 46.839946,49.777785 43.523472,51.661292 C 41.764392,52.339901 39.916872,52.747171 38.086149,53.180338 C 35.462344,53.751957 32.777726,53.61272 30.123966,53.390681 C 27.470657,53.174705 24.928172,52.429279 22.507037,51.350891 C 20.156319,50.076279 17.728779,48.987694 15.240871,48.016029 C 14.221603,47.682416 13.283497,47.193113 12.336105,46.718752 C 12.22407,46.618042 12.112035,46.517334 12,46.416623 L 18.810437,42.150762 C 18.89779,42.213731 18.985144,42.2767 19.072495,42.339667 C 19.937757,42.806569 20.791825,43.292228 21.650338,43.771867 C 23.97059,44.977144 26.272009,46.235461 28.700655,47.214238 C 31.083025,48.138737 33.535233,48.896174 36.094694,49.123101 C 38.789585,49.31648 41.48704,49.236408 44.121654,48.572664 C 45.988856,48.111483 47.865682,47.619182 49.608407,46.788987 C 37.620156,53.765997 44.39927,50.934275 45.550283,48.329217 C 45.765844,47.302829 45.94116,46.281646 45.702828,45.228669 C 45.448186,44.099044 45.19105,43.018067 44.322356,42.18387 C 42.323887,40.640056 40.14062,39.40019 37.763225,38.501707 C 33.586106,36.846033 29.303678,35.494933 25.059956,34.023253 C 22.414885,33.021534 19.828677,31.969227 18.054089,29.6483 C 16.824377,28.159581 15.662903,26.639525 15.344142,24.683548 C 15.325544,23.643767 15.253927,22.579758 15.543303,21.569404 C 17.777342,18.081089 22.736937,16.762993 25.807005,14.595567 C 27.922175,13.461407 30.081974,12.385892 32.425042,11.805552 C 34.145552,11.542572 35.842101,11.453285 37.584738,11.681623 C 40.175384,11.913574 42.740641,12.298046 45.223794,13.106522 C 47.283413,13.736447 49.378753,14.301649 51.361969,15.147048 L 44.46914,19.506718 z"
       style="fill:url(#radialGradient4565);fill-opacity:1.0;stroke:#3a7304;stroke-opacity:1;stroke-linejoin:round;stroke-linecap:round"
       id="path2180" />
    <path
       d="M 37.127281,1.9999997 C 36.637718,3.8121314 36.476402,5.7010005 36.305676,7.5654649 C 35.938498,11.786056 35.902816,16.023067 35.850418,20.256103 C 35.775579,25.231377 35.826206,30.204547 35.972056,35.177853 C 36.030348,39.04959 36.302584,42.91092 36.620699,46.768385 C 36.772895,48.451867 36.911457,50.136208 37.031947,51.822235 C 37.088622,52.637415 37.076961,53.454964 37.083363,54.271625 C 37.090715,54.963986 37.091837,55.656384 37.093916,56.348774 C 37.094945,57.011005 37.094638,57.673241 37.094721,58.335473 L 29.902707,62 C 29.90284,61.337309 29.902419,60.674617 29.903891,60.011926 C 29.906797,59.314986 29.908486,58.618032 29.918293,57.921142 C 29.92635,57.092458 29.921044,56.263477 29.961072,55.435554 C 30.031469,53.667491 30.087848,51.898614 30.091056,50.128947 C 30.088713,46.166029 30.002497,42.203269 29.995406,38.240315 C 29.914074,33.268114 29.786977,28.296719 29.826414,23.323167 C 29.800217,19.177209 29.764358,15.031647 29.704749,10.886205 C 29.722654,9.1090928 29.820023,7.3337367 29.790945,5.5574422 L 37.127281,1.9999997 z"
       style="fill:url(#linearGradient4573);fill-opacity:1;stroke:#3a7304;stroke-opacity:1;stroke-linejoin:round;stroke-linecap:round"
       id="path2186" />
  </g>
</svg>
